<svg width="1161" height="186" viewBox="0 0 1161 186" fill="none" xmlns="http://www.w3.org/2000/svg">
    <path
        d="M307.182 155V61.9091H367.727V76.0455H324.045V101.318H364.591V115.455H324.045V140.864H368.091V155H307.182ZM384.023 155V142.818L416.341 111.136C419.432 108.015 422.008 105.242 424.068 102.818C426.129 100.394 427.674 98.0455 428.705 95.7727C429.735 93.5 430.25 91.0758 430.25 88.5C430.25 85.5606 429.583 83.0455 428.25 80.9545C426.917 78.8333 425.083 77.197 422.75 76.0455C420.417 74.8939 417.765 74.3182 414.795 74.3182C411.735 74.3182 409.053 74.9545 406.75 76.2273C404.447 77.4697 402.659 79.2424 401.386 81.5455C400.144 83.8485 399.523 86.5909 399.523 89.7727H383.477C383.477 83.8636 384.826 78.7273 387.523 74.3636C390.22 70 393.932 66.6212 398.659 64.2273C403.417 61.8333 408.871 60.6364 415.023 60.6364C421.265 60.6364 426.75 61.803 431.477 64.1364C436.205 66.4697 439.871 69.6667 442.477 73.7273C445.114 77.7879 446.432 82.4242 446.432 87.6364C446.432 91.1212 445.765 94.5455 444.432 97.9091C443.098 101.273 440.75 105 437.386 109.091C434.053 113.182 429.371 118.136 423.341 123.955L407.295 140.273V140.909H447.841V155H384.023ZM464.432 155V61.9091H524.977V76.0455H481.295V101.318H521.841V115.455H481.295V140.864H525.341V155H464.432ZM650.432 61.9091V155H635.432L591.568 91.5909H590.795V155H573.932V61.9091H589.023L632.841 125.364H633.659V61.9091H650.432ZM698.989 156.364C691.989 156.364 685.943 154.909 680.852 152C675.792 149.061 671.898 144.909 669.17 139.545C666.443 134.152 665.08 127.803 665.08 120.5C665.08 113.318 666.443 107.015 669.17 101.591C671.928 96.1364 675.777 91.8939 680.716 88.8636C685.655 85.803 691.458 84.2727 698.125 84.2727C702.428 84.2727 706.489 84.9697 710.307 86.3636C714.155 87.7273 717.549 89.8485 720.489 92.7273C723.458 95.6061 725.792 99.2727 727.489 103.727C729.186 108.152 730.034 113.424 730.034 119.545V124.591H672.807V113.5H714.261C714.231 110.348 713.549 107.545 712.216 105.091C710.883 102.606 709.019 100.652 706.625 99.2273C704.261 97.803 701.504 97.0909 698.352 97.0909C694.989 97.0909 692.034 97.9091 689.489 99.5455C686.943 101.152 684.958 103.273 683.534 105.909C682.14 108.515 681.428 111.379 681.398 114.5V124.182C681.398 128.242 682.14 131.727 683.625 134.636C685.11 137.515 687.186 139.727 689.852 141.273C692.519 142.788 695.64 143.545 699.216 143.545C701.61 143.545 703.777 143.212 705.716 142.545C707.655 141.848 709.337 140.833 710.761 139.5C712.186 138.167 713.261 136.515 713.989 134.545L729.352 136.273C728.383 140.333 726.534 143.879 723.807 146.909C721.11 149.909 717.655 152.242 713.443 153.909C709.231 155.545 704.413 156.364 698.989 156.364ZM778.818 85.1818V97.9091H738.682V85.1818H778.818ZM748.591 68.4545H765.045V134C765.045 136.212 765.379 137.909 766.045 139.091C766.742 140.242 767.652 141.03 768.773 141.455C769.894 141.879 771.136 142.091 772.5 142.091C773.53 142.091 774.47 142.015 775.318 141.864C776.197 141.712 776.864 141.576 777.318 141.455L780.091 154.318C779.212 154.621 777.955 154.955 776.318 155.318C774.712 155.682 772.742 155.894 770.409 155.955C766.288 156.076 762.576 155.455 759.273 154.091C755.97 152.697 753.348 150.545 751.409 147.636C749.5 144.727 748.561 141.091 748.591 136.727V68.4545ZM806.989 155L787.261 85.1818H804.034L816.307 134.273H816.943L829.489 85.1818H846.08L858.625 134H859.307L871.398 85.1818H888.216L868.443 155H851.307L838.216 107.818H837.261L824.17 155H806.989ZM928.159 156.364C921.341 156.364 915.432 154.864 910.432 151.864C905.432 148.864 901.553 144.667 898.795 139.273C896.068 133.879 894.705 127.576 894.705 120.364C894.705 113.152 896.068 106.833 898.795 101.409C901.553 95.9848 905.432 91.7727 910.432 88.7727C915.432 85.7727 921.341 84.2727 928.159 84.2727C934.977 84.2727 940.886 85.7727 945.886 88.7727C950.886 91.7727 954.75 95.9848 957.477 101.409C960.235 106.833 961.614 113.152 961.614 120.364C961.614 127.576 960.235 133.879 957.477 139.273C954.75 144.667 950.886 148.864 945.886 151.864C940.886 154.864 934.977 156.364 928.159 156.364ZM928.25 143.182C931.947 143.182 935.038 142.167 937.523 140.136C940.008 138.076 941.856 135.318 943.068 131.864C944.311 128.409 944.932 124.561 944.932 120.318C944.932 116.045 944.311 112.182 943.068 108.727C941.856 105.242 940.008 102.47 937.523 100.409C935.038 98.3485 931.947 97.3182 928.25 97.3182C924.462 97.3182 921.311 98.3485 918.795 100.409C916.311 102.47 914.447 105.242 913.205 108.727C911.992 112.182 911.386 116.045 911.386 120.318C911.386 124.561 911.992 128.409 913.205 131.864C914.447 135.318 916.311 138.076 918.795 140.136C921.311 142.167 924.462 143.182 928.25 143.182ZM975.58 155V85.1818H991.534V96.8182H992.261C993.534 92.7879 995.716 89.6818 998.807 87.5C1001.93 85.2879 1005.49 84.1818 1009.49 84.1818C1010.4 84.1818 1011.41 84.2273 1012.53 84.3182C1013.69 84.3788 1014.64 84.4848 1015.4 84.6364V99.7727C1014.7 99.5303 1013.59 99.3182 1012.08 99.1364C1010.59 98.9242 1009.16 98.8182 1007.76 98.8182C1004.76 98.8182 1002.06 99.4697 999.67 100.773C997.307 102.045 995.443 103.818 994.08 106.091C992.716 108.364 992.034 110.985 992.034 113.955V155H975.58ZM1041.33 133.091L1041.28 113.227H1043.92L1069.01 85.1818H1088.24L1057.38 119.545H1053.97L1041.33 133.091ZM1026.33 155V61.9091H1042.78V155H1026.33ZM1070.15 155L1047.42 123.227L1058.51 111.636L1089.83 155H1070.15ZM1154.39 103.636L1139.39 105.273C1138.96 103.758 1138.22 102.333 1137.16 101C1136.13 99.6667 1134.73 98.5909 1132.98 97.7727C1131.22 96.9545 1129.07 96.5455 1126.52 96.5455C1123.1 96.5455 1120.22 97.2879 1117.89 98.7727C1115.58 100.258 1114.45 102.182 1114.48 104.545C1114.45 106.576 1115.19 108.227 1116.7 109.5C1118.25 110.773 1120.8 111.818 1124.34 112.636L1136.25 115.182C1142.86 116.606 1147.77 118.864 1150.98 121.955C1154.22 125.045 1155.86 129.091 1155.89 134.091C1155.86 138.485 1154.57 142.364 1152.02 145.727C1149.51 149.061 1146.01 151.667 1141.52 153.545C1137.04 155.424 1131.89 156.364 1126.07 156.364C1117.52 156.364 1110.64 154.576 1105.43 151C1100.22 147.394 1097.11 142.379 1096.11 135.955L1112.16 134.409C1112.89 137.561 1114.43 139.939 1116.8 141.545C1119.16 143.152 1122.23 143.955 1126.02 143.955C1129.93 143.955 1133.07 143.152 1135.43 141.545C1137.83 139.939 1139.02 137.955 1139.02 135.591C1139.02 133.591 1138.25 131.939 1136.7 130.636C1135.19 129.333 1132.83 128.333 1129.61 127.636L1117.7 125.136C1111.01 123.742 1106.05 121.394 1102.84 118.091C1099.63 114.758 1098.04 110.545 1098.07 105.455C1098.04 101.152 1099.2 97.4242 1101.57 94.2727C1103.96 91.0909 1107.28 88.6364 1111.52 86.9091C1115.8 85.1515 1120.72 84.2727 1126.3 84.2727C1134.48 84.2727 1140.92 86.0152 1145.61 89.5C1150.34 92.9848 1153.27 97.697 1154.39 103.636Z"
        fill="white" />
    <path
        d="M112.112 0C114.432 0.72 116.882 0.74 119.252 1.21C135.713 4.2801 150.625 12.8989 161.502 25.63C161.663 25.8957 161.875 26.1263 162.126 26.3078C162.378 26.4894 162.664 26.6181 162.967 26.6863C163.269 26.7545 163.583 26.7608 163.888 26.7047C164.193 26.6486 164.484 26.5314 164.742 26.36C185.082 17.36 209.122 22.19 223.742 38.14C232.912 48.14 236.562 60.14 235.382 73.55C235.142 76.3 235.092 76.28 237.662 77.55C249.402 83.55 258.942 91.88 265.062 103.67C272.732 118.45 272.792 133.67 265.812 148.53C256.972 167.41 241.742 178.41 221.352 182.42C217.861 183.072 214.314 183.38 210.762 183.34C161.152 183.34 111.532 183.62 61.9123 183.2C37.9123 183 19.1423 172.32 7.10232 151.39C-4.27768 131.7 -1.69768 108.07 12.8023 90.5C18.608 83.4142 25.8508 77.6404 34.0523 73.56C34.4515 73.4103 34.7902 73.1333 35.0161 72.7718C35.2421 72.4103 35.3427 71.9844 35.3023 71.56C35.4823 50.73 42.9923 33 58.1723 18.74C68.8285 8.63794 82.4683 2.25655 97.0523 0.55C98.0523 0.42 99.2323 0.61 100.202 0H112.112ZM136.992 171.73H210.992C212.401 171.742 213.81 171.678 215.212 171.54C230.882 169.84 243.272 162.61 252.042 149.54C261.472 135.44 261.462 118.35 252.102 104.74C245.872 95.67 237.252 89.65 227.102 85.68C223.462 84.26 222.172 81.88 222.962 78.05C223.072 77.49 223.182 76.92 223.272 76.36C224.642 68.18 224.122 60.17 219.952 52.86C212.952 40.52 201.822 34.51 187.882 33.6C179.854 33.1109 171.868 35.0857 164.992 39.26C161.362 41.39 158.582 40.84 156.062 37.41C152.441 32.3528 148.055 27.8895 143.062 24.18C126.762 12.29 108.802 8.47 89.3023 14.09C62.7123 21.74 45.2023 47.32 46.9923 76C47.1847 77.3569 46.8879 78.7379 46.155 79.8959C45.4221 81.0539 44.301 81.9132 42.9923 82.32C35.1682 85.4569 28.2226 90.4465 22.7523 96.86C16.6023 104.14 12.5923 112.42 11.8723 122C10.7923 136.48 16.4223 148.38 26.9223 158C37.4223 167.62 49.7823 171.78 63.8323 171.75C88.2323 171.703 112.619 171.697 136.992 171.73Z"
        fill="white" />
    <path
        d="M153.382 154.5C147.292 154.5 141.202 154.57 135.102 154.57C129.222 154.57 123.342 154.51 117.452 154.48L117.392 145.81V110.81L117.462 101.81C118.032 101.81 118.602 101.72 119.172 101.72C127.102 101.72 135.032 101.72 142.952 101.72C143.832 101.72 144.382 101.72 144.372 100.51C144.332 89.7433 144.332 78.9667 144.372 68.18C144.372 67 143.832 66.97 142.952 66.97C136.899 66.97 130.849 66.97 124.802 66.97C122.352 66.97 119.912 66.91 117.462 66.88V58.26H153.292C153.482 61.13 153.112 64.02 153.482 66.89C153.482 72.51 153.412 78.13 153.412 83.76C153.412 89.76 153.462 95.76 153.482 101.76C153.482 102.33 153.352 102.89 153.342 103.46C153.292 105.89 153.272 108.32 153.252 110.75C152.752 111.2 152.152 110.99 151.602 110.99C143.822 110.99 136.042 110.99 128.262 110.99C126.992 110.99 126.572 111.29 126.582 112.62C126.636 123.153 126.636 133.687 126.582 144.22C126.582 145.69 127.072 145.88 128.362 145.88C136.712 145.88 145.072 145.88 153.422 145.88C153.372 148.73 153.382 151.62 153.382 154.5Z"
        fill="#3F9BD5" />
    <path
        d="M117.392 145.81L117.452 154.48C108.792 154.48 100.132 154.48 91.4523 154.53C90.5623 154.53 90.1923 154.29 90.3023 153.4C90.3223 153.14 90.3223 152.88 90.3023 152.62C90.3023 121.727 90.3023 90.8333 90.3023 59.94C90.3023 58.53 90.6323 58.15 92.0723 58.17C100.522 58.25 108.972 58.23 117.422 58.25C117.422 61.12 117.422 64 117.422 66.87C111.892 66.87 106.362 66.87 100.832 66.87C99.7523 66.87 99.4423 67.11 99.4523 68.22C99.4923 78.9467 99.4923 89.6767 99.4523 100.41C99.4523 101.52 99.7523 101.77 100.832 101.76C106.362 101.76 111.892 101.76 117.422 101.76C117.422 104.773 117.399 107.773 117.352 110.76C111.822 110.76 106.292 110.76 100.762 110.76C99.7623 110.76 99.4523 111 99.4523 112.05C99.4923 122.877 99.4923 133.71 99.4523 144.55C99.4523 145.62 99.7923 145.81 100.762 145.8C106.332 145.79 111.862 145.81 117.392 145.81Z"
        fill="white" />
    <path
        d="M153.442 66.91C153.072 64.04 153.442 61.15 153.252 58.28L179.552 58.19C180.222 58.19 180.552 58.34 180.442 59.05C180.422 59.3096 180.422 59.5704 180.442 59.83C180.442 90.79 180.442 121.75 180.442 152.71C180.442 154.24 180.072 154.57 178.572 154.55C170.172 154.47 161.762 154.5 153.352 154.5C153.352 151.62 153.352 148.73 153.352 145.85C158.782 145.85 164.222 145.76 169.652 145.85C171.112 145.85 171.312 145.41 171.312 144.11C171.252 133.577 171.252 123.043 171.312 112.51C171.312 111.2 171.092 110.74 169.632 110.76C164.152 110.84 158.632 110.76 153.192 110.76C153.192 108.33 153.192 105.9 153.282 103.47C153.282 102.9 153.372 102.34 153.422 101.77C158.862 101.77 164.292 101.77 169.722 101.77C170.862 101.77 171.322 101.6 171.312 100.28C171.252 89.6133 171.252 78.9767 171.312 68.37C171.312 67.05 170.862 66.87 169.722 66.88C164.312 66.93 158.882 66.91 153.442 66.91Z"
        fill="white" />
</svg>