<svg viewBox="0 0 273 185" xmlns="http://www.w3.org/2000/svg"
    style="width:100%;height:auto;display:block">
    <path
        d="M112.112 0c2.32.72 4.77.74 7.14 1.21a73.23 73.23 0 0 1 42.25 24.42 2.303 2.303 0 0 0 3.24.73c20.34-9 44.38-4.17 59 11.78 9.17 10 12.82 22 11.64 35.41-.24 2.75-.29 2.73 2.28 4 11.74 6 21.28 14.33 27.4 26.12 7.67 14.78 7.73 30 .75 44.86-8.84 18.88-24.07 29.88-44.46 33.89-3.491.652-7.038.96-10.59.92-49.61 0-99.23.28-148.85-.14-24-.2-42.77-10.88-54.81-31.81-11.38-19.69-8.8-43.32 5.7-60.89a64.8 64.8 0 0 1 21.25-16.94 1.94 1.94 0 0 0 1.25-2c.18-20.83 7.69-38.56 22.87-52.82A68 68 0 0 1 97.052.55c1-.13 2.18.06 3.15-.55zm24.88 171.73h74a40 40 0 0 0 4.22-.19c15.67-1.7 28.06-8.93 36.83-22 9.43-14.1 9.42-31.19.06-44.8-6.23-9.07-14.85-15.09-25-19.06-3.64-1.42-4.93-3.8-4.14-7.63.11-.56.22-1.13.31-1.69 1.37-8.18.85-16.19-3.32-23.5-7-12.34-18.13-18.35-32.07-19.26a39.5 39.5 0 0 0-22.89 5.66c-3.63 2.13-6.41 1.58-8.93-1.85a60 60 0 0 0-13-13.23c-16.3-11.89-34.26-15.71-53.76-10.09-26.59 7.65-44.1 33.23-42.31 61.91a5.77 5.77 0 0 1-4 6.32 52.1 52.1 0 0 0-20.24 14.54c-6.15 7.28-10.16 15.56-10.88 25.14-1.08 14.48 4.55 26.38 15.05 36s22.86 13.78 36.91 13.75q36.6-.07 73.16-.02"
        fill="#fff" />
    <path
        d="M153.382 154.5c-6.09 0-12.18.07-18.28.07-5.88 0-11.76-.06-17.65-.09l-.06-8.67v-35l.07-9c.57 0 1.14-.09 1.71-.09h23.78c.88 0 1.43 0 1.42-1.21q-.06-16.15 0-32.33c0-1.18-.54-1.21-1.42-1.21h-18.15c-2.45 0-4.89-.06-7.34-.09v-8.62h35.83c.19 2.87-.18 5.76.19 8.63 0 5.62-.07 11.24-.07 16.87 0 6 .05 12 .07 18 0 .57-.13 1.13-.14 1.7-.05 2.43-.07 4.86-.09 7.29-.5.45-1.1.24-1.65.24h-23.34c-1.27 0-1.69.3-1.68 1.63q.081 15.8 0 31.6c0 1.47.49 1.66 1.78 1.66h25.06c-.05 2.85-.04 5.74-.04 8.62"
        fill="#3f9bd5" />
    <path
        d="m117.392 145.81.06 8.67c-8.66 0-17.32 0-26 .05-.89 0-1.26-.24-1.15-1.13q.03-.39 0-.78V59.94c0-1.41.33-1.79 1.77-1.77 8.45.08 16.9.06 25.35.08v8.62h-16.59c-1.08 0-1.39.24-1.38 1.35q.06 16.09 0 32.19c0 1.11.3 1.36 1.38 1.35h16.59q0 4.52-.07 9h-16.59c-1 0-1.31.24-1.31 1.29q.06 16.24 0 32.5c0 1.07.34 1.26 1.31 1.25 5.57-.01 11.1.01 16.63.01m36.05-78.9c-.37-2.87 0-5.76-.19-8.63l26.3-.09c.67 0 1 .15.89.86q-.03.39 0 .78v92.88c0 1.53-.37 1.86-1.87 1.84-8.4-.08-16.81-.05-25.22-.05v-8.65c5.43 0 10.87-.09 16.3 0 1.46 0 1.66-.44 1.66-1.74a2774 2774 0 0 1 0-31.6c0-1.31-.22-1.77-1.68-1.75-5.48.08-11 0-16.44 0 0-2.43 0-4.86.09-7.29 0-.57.09-1.13.14-1.7h16.3c1.14 0 1.6-.17 1.59-1.49q-.09-16 0-31.91c0-1.32-.45-1.5-1.59-1.49-5.41.05-10.84.03-16.28.03"
        fill="#fff" />
</svg>
  